<?xml version="1.0" standalone="no"?>
<!DOCTYPE svg PUBLIC "-//W3C//DTD SVG 20010904//EN"
 "http://www.w3.org/TR/2001/REC-SVG-20010904/DTD/svg10.dtd">
<svg version="1.0" xmlns="http://www.w3.org/2000/svg"
 width="512.000000pt" height="512.000000pt" viewBox="0 0 512.000000 512.000000"
 preserveAspectRatio="xMidYMid meet">
<metadata>
Created by potrace 1.11, written by Peter Selinger 2001-2013
</metadata>
<g transform="translate(0.000000,512.000000) scale(0.100000,-0.100000)"
fill="#000000" stroke="none">
<path d="M2463 5103 c-59 -20 -127 -84 -159 -149 -26 -53 -27 -62 -29 -233 -1
-98 -8 -201 -15 -231 -46 -202 -213 -369 -424 -424 -57 -14 -212 -17 -261 -3
-120 32 -205 89 -335 221 -135 137 -192 170 -298 167 -149 -3 -273 -130 -273
-280 -1 -96 31 -152 160 -284 149 -152 178 -193 222 -322 22 -66 18 -237 -8
-320 -37 -117 -124 -235 -225 -303 -109 -75 -193 -95 -408 -97 -225 -3 -273
-18 -348 -114 -116 -146 -59 -356 116 -433 40 -18 70 -21 223 -23 97 -1 201
-8 230 -15 200 -46 362 -204 417 -405 45 -166 11 -353 -90 -485 -11 -14 -69
-75 -129 -137 -76 -78 -117 -128 -134 -165 -108 -237 135 -482 372 -373 39 18
86 56 166 136 131 129 204 181 296 210 317 100 655 -90 731 -411 7 -31 14
-125 15 -215 2 -220 16 -267 95 -339 52 -47 91 -64 168 -71 117 -12 235 57
282 167 21 48 23 71 25 233 3 194 11 247 52 334 97 208 321 343 547 328 169
-11 274 -66 427 -223 142 -145 197 -177 305 -175 200 2 333 215 250 397 -18
38 -58 89 -135 167 -122 125 -139 144 -171 202 -84 149 -90 347 -15 511 71
154 220 276 385 315 32 7 130 13 230 14 153 2 181 4 222 23 208 92 239 360 56
492 -60 44 -105 53 -288 55 -215 3 -298 22 -408 96 -214 145 -307 437 -213
674 38 97 61 129 202 272 125 128 158 185 160 275 3 119 -54 210 -167 264 -54
25 -122 33 -184 19 -52 -11 -127 -65 -207 -148 -172 -179 -266 -230 -448 -244
-204 -15 -423 103 -525 282 -59 104 -72 168 -75 373 -2 168 -5 192 -25 239
-25 59 -91 126 -148 150 -49 22 -156 25 -209 6z m-356 -1717 c182 -85 224
-318 82 -457 -180 -177 -479 -52 -479 201 0 125 81 234 200 271 55 16 143 10
197 -15z m1141 -1138 c213 -100 217 -400 8 -511 -55 -29 -193 -31 -248 -4 -86
43 -154 141 -161 234 -17 216 206 372 401 281z"/>
</g>
</svg>
